<svg width="130" height="48" viewBox="0 0 130 48" fill="none" xmlns="http://www.w3.org/2000/svg">
<path d="M10.9009 24.18C8.79156 24.18 7.03689 23.928 5.63689 23.424C4.25556 22.92 3.21956 22.0893 2.52889 20.932C1.85689 19.756 1.52089 18.188 1.52089 16.228C1.52089 14.2307 1.86623 12.6627 2.55689 11.524C3.26623 10.3853 4.31156 9.57333 5.69289 9.088C7.09289 8.60267 8.8289 8.36 10.9009 8.36C13.0289 8.36 14.7836 8.612 16.1649 9.116C17.5462 9.60133 18.5729 10.4227 19.2449 11.58C19.9356 12.7187 20.2809 14.268 20.2809 16.228C20.2809 18.2253 19.9262 19.812 19.2169 20.988C18.5262 22.1453 17.4809 22.9667 16.0809 23.452C14.6996 23.9373 12.9729 24.18 10.9009 24.18ZM10.9009 21.856C12.1702 21.856 13.2156 21.7813 14.0369 21.632C14.8769 21.464 15.5209 21.184 15.9689 20.792C16.4356 20.3813 16.7529 19.8213 16.9209 19.112C17.1076 18.384 17.2009 17.4507 17.2009 16.312C17.2009 15.1547 17.1076 14.212 16.9209 13.484C16.7529 12.7373 16.4356 12.1587 15.9689 11.748C15.5209 11.3373 14.8769 11.0573 14.0369 10.908C13.2156 10.74 12.1702 10.656 10.9009 10.656C9.65023 10.656 8.61423 10.74 7.7929 10.908C6.97156 11.0573 6.32756 11.3373 5.86089 11.748C5.39423 12.1587 5.06756 12.7373 4.88089 13.484C4.71289 14.212 4.62889 15.1547 4.62889 16.312C4.62889 17.4507 4.72223 18.384 4.90889 19.112C5.09556 19.8213 5.42223 20.3813 5.88889 20.792C6.35556 21.184 6.99956 21.464 7.82089 21.632C8.64223 21.7813 9.66889 21.856 10.9009 21.856ZM9.4169 26.028L9.50089 17.04L9.4169 6.484H12.4129L12.3009 15.108L12.4129 26L9.4169 26.028ZM24.225 26L24.337 16.928L24.225 6.484C24.225 6.484 24.4303 6.46533 24.841 6.428C25.2703 6.39067 25.821 6.344 26.493 6.288C27.165 6.232 27.9023 6.18533 28.705 6.148C29.5076 6.11067 30.2823 6.092 31.029 6.092C32.8023 6.092 34.1743 6.652 35.145 7.772C36.1343 8.87333 36.629 10.5347 36.629 12.756C36.629 14.1373 36.4516 15.2853 36.097 16.2C35.7423 17.096 35.2663 17.796 34.669 18.3C34.0903 18.804 33.4276 19.168 32.681 19.392C31.953 19.5973 31.2063 19.7 30.441 19.7C29.825 19.7 29.1903 19.6813 28.537 19.644C27.8836 19.588 27.4356 19.56 27.193 19.56V26H24.225ZM30.581 17.264C31.141 17.264 31.589 17.2267 31.925 17.152C32.2796 17.0773 32.5596 16.9467 32.765 16.76C33.045 16.48 33.2316 15.9853 33.325 15.276C33.437 14.5667 33.493 13.6333 33.493 12.476C33.493 11.5427 33.4463 10.8333 33.353 10.348C33.2783 9.844 33.1756 9.48933 33.045 9.284C32.9143 9.06 32.7836 8.91067 32.653 8.836C32.485 8.70533 32.205 8.60267 31.813 8.528C31.421 8.43467 30.9543 8.388 30.413 8.388C29.7783 8.388 29.1716 8.416 28.593 8.472C28.0143 8.528 27.5476 8.584 27.193 8.64V16.956C27.3796 16.9747 27.7996 17.0307 28.453 17.124C29.125 17.2173 29.8343 17.264 30.581 17.264ZM40.8226 26V6.484H51.0706V9.06L42.4746 8.948L43.8466 7.632L43.6226 15.92L42.3346 14.828H50.3706V17.32H42.3346L43.6226 16.172L43.8466 24.824L42.4746 23.48L51.0706 23.424V26H40.8226ZM55.5336 26V6.484H58.5016L58.4176 15.948V24.768L57.0736 23.424H65.8376L64.4936 24.768L64.5216 16.088L64.4656 6.484H67.4336L67.3496 16.088L67.4056 24.768L66.0616 23.424H74.7416L73.3976 24.768V16.004L73.3136 6.484H76.2816V26H55.5336ZM88.3922 26.392C87.3655 26.392 86.3949 26.2427 85.4802 25.944C84.5655 25.6453 83.7535 25.1227 83.0442 24.376C82.3535 23.6293 81.8122 22.5933 81.4202 21.268C81.0282 19.9427 80.8322 18.2533 80.8322 16.2C80.8322 14.1467 81.0282 12.4667 81.4202 11.16C81.8122 9.83467 82.3535 8.808 83.0442 8.08C83.7535 7.33333 84.5655 6.82 85.4802 6.54C86.3949 6.24133 87.3655 6.092 88.3922 6.092C89.4189 6.092 90.3802 6.24133 91.2762 6.54C92.1909 6.82 92.9935 7.33333 93.6842 8.08C94.3935 8.808 94.9442 9.82533 95.3362 11.132C95.7282 12.4387 95.9242 14.128 95.9242 16.2C95.9242 18.2533 95.7282 19.9427 95.3362 21.268C94.9442 22.5933 94.3935 23.6293 93.6842 24.376C92.9935 25.1227 92.1909 25.6453 91.2762 25.944C90.3802 26.2427 89.4189 26.392 88.3922 26.392ZM88.3922 23.732C89.1389 23.732 89.7922 23.648 90.3522 23.48C90.9122 23.312 91.3695 22.976 91.7242 22.472C92.0975 21.9493 92.3682 21.1933 92.5362 20.204C92.7229 19.2147 92.8162 17.8987 92.8162 16.256C92.8162 14.632 92.7322 13.3253 92.5642 12.336C92.3962 11.328 92.1349 10.572 91.7802 10.068C91.4255 9.54533 90.9589 9.19067 90.3802 9.004C89.8202 8.81733 89.1575 8.724 88.3922 8.724C87.5895 8.724 86.9082 8.81733 86.3482 9.004C85.8069 9.19067 85.3589 9.54533 85.0042 10.068C84.6495 10.572 84.3882 11.328 84.2202 12.336C84.0522 13.3253 83.9682 14.6413 83.9682 16.284C83.9682 17.908 84.0522 19.2147 84.2202 20.204C84.3882 21.1933 84.6495 21.9493 85.0042 22.472C85.3775 22.976 85.8442 23.312 86.4042 23.48C86.9642 23.648 87.6269 23.732 88.3922 23.732ZM111.295 26L103.539 15.892L110.735 6.484H114.319L106.899 15.724V15.892L115.047 26H111.295ZM100.487 26L100.571 16.088L100.487 6.484H103.483V26H100.487Z" fill="#63A60E"/>
<path d="M14.2805 44.168C13.8405 44.168 13.4245 44.104 13.0325 43.976C12.6405 43.848 12.2925 43.624 11.9885 43.304C11.6925 42.984 11.4605 42.54 11.2925 41.972C11.1245 41.404 11.0405 40.68 11.0405 39.8C11.0405 38.92 11.1245 38.2 11.2925 37.64C11.4605 37.072 11.6925 36.632 11.9885 36.32C12.2925 36 12.6405 35.78 13.0325 35.66C13.4245 35.532 13.8405 35.468 14.2805 35.468C14.7205 35.468 15.1325 35.532 15.5165 35.66C15.9085 35.78 16.2525 36 16.5485 36.32C16.8525 36.632 17.0885 37.068 17.2565 37.628C17.4245 38.188 17.5085 38.912 17.5085 39.8C17.5085 40.68 17.4245 41.404 17.2565 41.972C17.0885 42.54 16.8525 42.984 16.5485 43.304C16.2525 43.624 15.9085 43.848 15.5165 43.976C15.1325 44.104 14.7205 44.168 14.2805 44.168ZM14.2805 43.028C14.6005 43.028 14.8805 42.992 15.1205 42.92C15.3605 42.848 15.5565 42.704 15.7085 42.488C15.8685 42.264 15.9845 41.94 16.0565 41.516C16.1365 41.092 16.1765 40.528 16.1765 39.824C16.1765 39.128 16.1405 38.568 16.0685 38.144C15.9965 37.712 15.8845 37.388 15.7325 37.172C15.5805 36.948 15.3805 36.796 15.1325 36.716C14.8925 36.636 14.6085 36.596 14.2805 36.596C13.9365 36.596 13.6445 36.636 13.4045 36.716C13.1725 36.796 12.9805 36.948 12.8285 37.172C12.6765 37.388 12.5645 37.712 12.4925 38.144C12.4205 38.568 12.3845 39.132 12.3845 39.836C12.3845 40.532 12.4205 41.092 12.4925 41.516C12.5645 41.94 12.6765 42.264 12.8285 42.488C12.9885 42.704 13.1885 42.848 13.4285 42.92C13.6685 42.992 13.9525 43.028 14.2805 43.028ZM19.4638 44V35.636H20.7358L20.6998 39.608L20.1358 39.188H24.5638L23.9998 39.608L23.9638 35.636H25.2358V44H23.9638L23.9998 39.872L24.5638 40.292H20.1358L20.6998 39.872L20.7358 44H19.4638ZM26.8649 44.168L26.6489 43.22C26.7609 43.204 26.8649 43.188 26.9609 43.172C27.0569 43.148 27.1369 43.124 27.2009 43.1C27.3609 43.044 27.4849 42.964 27.5729 42.86C27.6609 42.756 27.7289 42.58 27.7769 42.332C27.8329 42.084 27.8729 41.724 27.8969 41.252L28.2689 35.636H33.1169V44H31.8449L31.9049 36.728H29.4329L29.1209 41.372C29.0809 41.94 29.0129 42.416 28.9169 42.8C28.8209 43.184 28.6529 43.476 28.4129 43.676C28.2449 43.82 28.0209 43.936 27.7409 44.024C27.4689 44.12 27.1769 44.168 26.8649 44.168ZM34.2957 44L36.5757 35.636H38.3037L40.5837 44H39.2877L38.6397 41.444L39.3117 41.888H35.5917L36.2397 41.444L35.6037 44H34.2957ZM36.2517 41.372L35.8197 40.796H39.0717L38.6397 41.372L37.3437 36.224L38.0517 36.776H36.8397L37.5357 36.224L36.2517 41.372ZM41.7881 44V35.636H43.0121L42.9641 39.884V42.176L46.0601 35.636H47.8121V44H46.5881L46.6361 40.148V36.932L43.3001 44H41.7881ZM44.7761 35.324C44.1681 35.324 43.6961 35.18 43.3601 34.892C43.0321 34.604 42.8521 34.144 42.8201 33.512L43.6361 33.476C43.6761 33.764 43.7801 33.98 43.9481 34.124C44.1161 34.268 44.3921 34.34 44.7761 34.34C45.2001 34.34 45.4961 34.268 45.6641 34.124C45.8321 33.98 45.9361 33.764 45.9761 33.476L46.6961 33.512C46.6801 33.936 46.5921 34.284 46.4321 34.556C46.2721 34.82 46.0521 35.016 45.7721 35.144C45.5001 35.264 45.1681 35.324 44.7761 35.324ZM50.167 44V35.636H51.439L51.403 39.608L50.839 39.188H55.267L54.703 39.608L54.667 35.636H55.939V44H54.667L54.703 39.872L55.267 40.292H50.839L51.403 39.872L51.439 44H50.167ZM57.5801 40.604V39.536H60.4361V40.604H57.5801ZM62.0367 44L62.3247 35.636H64.0647L65.8047 40.88H65.8887L67.6527 35.636H69.3927L69.6807 44H68.4207L68.3727 36.968H68.2887L66.5727 42.104H65.1327L63.4287 36.968H63.3447L63.2967 44H62.0367ZM70.7996 44L73.0796 35.636H74.8076L77.0876 44H75.7916L75.1436 41.444L75.8156 41.888H72.0956L72.7436 41.444L72.1076 44H70.7996ZM72.7556 41.372L72.3236 40.796H75.5756L75.1436 41.372L73.8476 36.224L74.5556 36.776H73.3436L74.0396 36.224L72.7556 41.372ZM78.292 44L78.34 40.112L78.292 35.636C78.292 35.636 78.38 35.628 78.556 35.612C78.74 35.596 78.976 35.576 79.264 35.552C79.552 35.528 79.868 35.508 80.212 35.492C80.556 35.476 80.888 35.468 81.208 35.468C81.968 35.468 82.556 35.708 82.972 36.188C83.396 36.66 83.608 37.372 83.608 38.324C83.608 38.916 83.532 39.408 83.38 39.8C83.228 40.184 83.024 40.484 82.768 40.7C82.52 40.916 82.236 41.072 81.916 41.168C81.604 41.256 81.284 41.3 80.956 41.3C80.692 41.3 80.42 41.292 80.14 41.276C79.86 41.252 79.668 41.24 79.564 41.24V44H78.292ZM81.016 40.256C81.256 40.256 81.448 40.24 81.592 40.208C81.744 40.176 81.864 40.12 81.952 40.04C82.072 39.92 82.152 39.708 82.192 39.404C82.24 39.1 82.264 38.7 82.264 38.204C82.264 37.804 82.244 37.5 82.204 37.292C82.172 37.076 82.128 36.924 82.072 36.836C82.016 36.74 81.96 36.676 81.904 36.644C81.832 36.588 81.712 36.544 81.544 36.512C81.376 36.472 81.176 36.452 80.944 36.452C80.672 36.452 80.412 36.464 80.164 36.488C79.916 36.512 79.716 36.536 79.564 36.56V40.124C79.644 40.132 79.824 40.156 80.104 40.196C80.392 40.236 80.696 40.256 81.016 40.256ZM90.0372 44L86.7132 39.668L89.7972 35.636H91.3332L88.1532 39.596V39.668L91.6452 44H90.0372ZM85.4052 44L85.4412 39.752L85.4052 35.636H86.6892V44H85.4052ZM92.6357 44V35.636H97.0277V36.74L93.3437 36.692L93.9317 36.128L93.8357 39.68L93.2837 39.212H96.7277V40.28H93.2837L93.8357 39.788L93.9317 43.496L93.3437 42.92L97.0277 42.896V44H92.6357ZM100.044 44L100.068 36.704L97.7284 36.74V35.636H103.644V36.74L101.28 36.704L101.304 44H100.044Z" fill="#63A60E"/>
</svg>
