<svg width="113" height="12" viewBox="0 0 113 12" fill="none" xmlns="http://www.w3.org/2000/svg">
<path d="M6.10449 3.76074C5.53483 3.76074 5.09505 3.95898 4.78516 4.35547C4.47982 4.75195 4.32715 5.30111 4.32715 6.00293C4.32715 6.76855 4.4707 7.33594 4.75781 7.70508C5.04948 8.07422 5.49382 8.25879 6.09082 8.25879C6.48275 8.25879 6.96354 8.15625 7.5332 7.95117V8.79883C7.31445 8.88997 7.08887 8.96745 6.85645 9.03125C6.62858 9.09505 6.35514 9.12695 6.03613 9.12695C5.15202 9.12695 4.47298 8.85352 3.99902 8.30664C3.52507 7.75521 3.28809 6.9873 3.28809 6.00293C3.28809 5.05046 3.53874 4.29395 4.04004 3.7334C4.5459 3.17285 5.23405 2.89258 6.10449 2.89258C6.68783 2.89258 7.24837 3.0293 7.78613 3.30273L7.38965 4.10938C6.89746 3.87695 6.46908 3.76074 6.10449 3.76074ZM0.683594 6.00293C0.683594 5.09147 0.911458 4.23698 1.36719 3.43945C1.82292 2.64193 2.44954 2.01302 3.24707 1.55273C4.0446 1.09245 4.90365 0.862305 5.82422 0.862305C6.73568 0.862305 7.59017 1.09017 8.3877 1.5459C9.18522 2.00163 9.81413 2.62826 10.2744 3.42578C10.7347 4.22331 10.9648 5.08236 10.9648 6.00293C10.9648 6.90072 10.7438 7.74382 10.3018 8.53223C9.8597 9.32064 9.23991 9.95182 8.44238 10.4258C7.64486 10.8997 6.77214 11.1367 5.82422 11.1367C4.88086 11.1367 4.01042 10.902 3.21289 10.4326C2.41536 9.95866 1.79329 9.32747 1.34668 8.53906C0.904622 7.75065 0.683594 6.90527 0.683594 6.00293ZM1.40137 6.00293C1.40137 6.79134 1.59961 7.52962 1.99609 8.21777C2.39258 8.90137 2.93262 9.44141 3.61621 9.83789C4.30436 10.2298 5.04036 10.4258 5.82422 10.4258C6.61719 10.4258 7.35319 10.2275 8.03223 9.83105C8.71126 9.43457 9.24902 8.89909 9.64551 8.22461C10.0465 7.54557 10.2471 6.80501 10.2471 6.00293C10.2471 5.20996 10.0488 4.47396 9.65234 3.79492C9.25586 3.11589 8.7181 2.57812 8.03906 2.18164C7.36458 1.7806 6.6263 1.58008 5.82422 1.58008C5.03125 1.58008 4.29525 1.77832 3.61621 2.1748C2.93717 2.57129 2.39714 3.10905 1.99609 3.78809C1.59961 4.46257 1.40137 5.20085 1.40137 6.00293ZM22.5381 11H15.9688V10.0225L18.6006 7.37695C19.4027 6.56576 19.9313 5.98698 20.1865 5.64062C20.4417 5.29427 20.6331 4.95703 20.7607 4.62891C20.8883 4.30078 20.9521 3.94759 20.9521 3.56934C20.9521 3.03613 20.7904 2.61458 20.4668 2.30469C20.1432 1.99023 19.6943 1.83301 19.1201 1.83301C18.7054 1.83301 18.3112 1.90137 17.9375 2.03809C17.5684 2.1748 17.1559 2.42318 16.7002 2.7832L16.0986 2.01074C17.0192 1.24512 18.0218 0.862305 19.1064 0.862305C20.0452 0.862305 20.7812 1.10384 21.3145 1.58691C21.8477 2.06543 22.1143 2.71029 22.1143 3.52148C22.1143 4.15495 21.9365 4.78158 21.5811 5.40137C21.2256 6.02116 20.5602 6.80501 19.585 7.75293L17.3975 9.89258V9.94727H22.5381V11ZM30.6045 5.98926C30.6045 7.71647 30.3311 9.00618 29.7842 9.8584C29.2419 10.7106 28.4102 11.1367 27.2891 11.1367C26.2135 11.1367 25.3955 10.7015 24.835 9.83105C24.2744 8.95605 23.9941 7.67546 23.9941 5.98926C23.9941 4.24837 24.2653 2.95638 24.8076 2.11328C25.3499 1.27018 26.1771 0.848633 27.2891 0.848633C28.3737 0.848633 29.1963 1.28841 29.7568 2.16797C30.3219 3.04753 30.6045 4.32129 30.6045 5.98926ZM25.1426 5.98926C25.1426 7.44303 25.3135 8.5026 25.6553 9.16797C25.9971 9.82878 26.5417 10.1592 27.2891 10.1592C28.0456 10.1592 28.5924 9.82422 28.9297 9.1543C29.2715 8.47982 29.4424 7.4248 29.4424 5.98926C29.4424 4.55371 29.2715 3.50326 28.9297 2.83789C28.5924 2.16797 28.0456 1.83301 27.2891 1.83301C26.5417 1.83301 25.9971 2.16341 25.6553 2.82422C25.3135 3.48047 25.1426 4.53548 25.1426 5.98926ZM38.5615 11H31.9922V10.0225L34.624 7.37695C35.4261 6.56576 35.9548 5.98698 36.21 5.64062C36.4652 5.29427 36.6566 4.95703 36.7842 4.62891C36.9118 4.30078 36.9756 3.94759 36.9756 3.56934C36.9756 3.03613 36.8138 2.61458 36.4902 2.30469C36.1667 1.99023 35.7178 1.83301 35.1436 1.83301C34.7288 1.83301 34.3346 1.90137 33.9609 2.03809C33.5918 2.1748 33.1794 2.42318 32.7236 2.7832L32.1221 2.01074C33.0426 1.24512 34.0452 0.862305 35.1299 0.862305C36.0687 0.862305 36.8047 1.10384 37.3379 1.58691C37.8711 2.06543 38.1377 2.71029 38.1377 3.52148C38.1377 4.15495 37.96 4.78158 37.6045 5.40137C37.249 6.02116 36.5837 6.80501 35.6084 7.75293L33.4209 9.89258V9.94727H38.5615V11ZM44.208 11H43.1006V3.87695C43.1006 3.28451 43.1188 2.72396 43.1553 2.19531C43.0596 2.29102 42.9525 2.39128 42.834 2.49609C42.7155 2.60091 42.1732 3.04525 41.207 3.8291L40.6055 3.0498L43.251 1.00586H44.208V11ZM55.9658 0.862305H57.1416V2.09277H57.6201C58.3994 2.09277 59.0739 2.24772 59.6436 2.55762C60.2178 2.86751 60.6553 3.30501 60.9561 3.87012C61.2614 4.43522 61.4141 5.08008 61.4141 5.80469C61.4141 6.5612 61.2432 7.23568 60.9014 7.82812C60.5641 8.41602 60.0993 8.85807 59.5068 9.1543C58.9189 9.45052 58.224 9.59863 57.4219 9.59863H57.1416V11.1367H55.9658V9.59863H55.6582C54.8561 9.59863 54.1611 9.44824 53.5732 9.14746C52.9854 8.84668 52.5251 8.40007 52.1924 7.80762C51.8597 7.21517 51.6934 6.55208 51.6934 5.81836C51.6934 5.09831 51.846 4.45573 52.1514 3.89062C52.4613 3.32552 52.9033 2.88574 53.4775 2.57129C54.0518 2.25228 54.7285 2.09277 55.5078 2.09277H55.9658V0.862305ZM57.1416 8.62109H57.3125C58.2285 8.62109 58.9395 8.37272 59.4453 7.87598C59.9557 7.37467 60.2109 6.67969 60.2109 5.79102C60.2109 4.94792 59.9762 4.28711 59.5068 3.80859C59.0374 3.33008 58.3812 3.09082 57.5381 3.09082H57.1416V8.62109ZM55.9658 3.09082H55.5762C54.7467 3.09082 54.0928 3.33236 53.6143 3.81543C53.1403 4.2985 52.9033 4.95703 52.9033 5.79102C52.9033 6.6888 53.1562 7.38607 53.6621 7.88281C54.168 8.375 54.8812 8.62109 55.8018 8.62109H55.9658V3.09082ZM69.8496 3.91797C69.8496 4.92969 69.5033 5.70898 68.8105 6.25586C68.1224 6.79818 67.1357 7.06934 65.8506 7.06934H64.6748V11H63.5127V1.00586H66.1035C68.6009 1.00586 69.8496 1.97656 69.8496 3.91797ZM64.6748 6.07129H65.7207C66.7507 6.07129 67.4958 5.90495 67.9561 5.57227C68.4163 5.23958 68.6465 4.70638 68.6465 3.97266C68.6465 3.31185 68.43 2.81966 67.9971 2.49609C67.5641 2.17253 66.8896 2.01074 65.9736 2.01074H64.6748V6.07129ZM77.5195 11H71.9482V1.00586H77.5195V2.03809H73.1104V5.25781H77.2529V6.2832H73.1104V9.96094H77.5195V11ZM91.4443 11H79.7412V1.00586H80.9033V9.94727H85.0049V1.00586H86.167V9.94727H90.2686V1.00586H91.4443V11ZM102.867 5.98926C102.867 7.58887 102.462 8.84668 101.65 9.7627C100.844 10.6787 99.7204 11.1367 98.2803 11.1367C96.8083 11.1367 95.6712 10.6878 94.8691 9.79004C94.0716 8.8877 93.6729 7.61621 93.6729 5.97559C93.6729 4.34863 94.0739 3.08854 94.876 2.19531C95.6781 1.29753 96.8174 0.848633 98.2939 0.848633C99.7295 0.848633 100.851 1.30436 101.657 2.21582C102.464 3.12728 102.867 4.38509 102.867 5.98926ZM94.9033 5.98926C94.9033 7.34277 95.1904 8.37044 95.7646 9.07227C96.3434 9.76953 97.182 10.1182 98.2803 10.1182C99.3877 10.1182 100.224 9.76953 100.789 9.07227C101.354 8.375 101.637 7.34733 101.637 5.98926C101.637 4.64486 101.354 3.6263 100.789 2.93359C100.229 2.23633 99.3968 1.8877 98.2939 1.8877C97.1865 1.8877 96.3434 2.23861 95.7646 2.94043C95.1904 3.6377 94.9033 4.65397 94.9033 5.98926ZM112.294 11H110.886L106.265 5.93457V11H105.103V1.00586H106.265V5.8457L110.77 1.00586H112.103L107.68 5.85938L112.294 11Z" fill="white"/>
</svg>
